<svg height="1214" width="720" xmlns="http://www.w3.org/2000/svg">
<rect height="1214" fill="#555" width="720"></rect>
<text fill="#7f7" font-family="Courier New" font-size="12" xml:space="preserve">
<tspan x="10" y="26">22 megabytes installed</tspan>
<tspan x="10" y="42"></tspan>
<tspan x="10" y="58">node_modules</tspan>
<tspan x="10" y="74">└─┬ turf@3.0.14 </tspan>
<tspan x="10" y="90">  ├── turf-along@3.0.12 </tspan>
<tspan x="10" y="106">  ├─┬ turf-area@3.0.12 </tspan>
<tspan x="10" y="122">  │ └─┬ geojson-area@0.2.1 </tspan>
<tspan x="10" y="138">  │   └── wgs84@0.0.0 </tspan>
<tspan x="10" y="154">  ├── turf-bbox@3.0.12 </tspan>
<tspan x="10" y="170">  ├── turf-bbox-polygon@3.0.12 </tspan>
<tspan x="10" y="186">  ├─┬ turf-bearing@3.0.12 </tspan>
<tspan x="10" y="202">  │ └── turf-invariant@3.0.12 </tspan>
<tspan x="10" y="218">  ├── turf-bezier@3.0.12 </tspan>
<tspan x="10" y="234">  ├─┬ turf-buffer@3.0.12 </tspan>
<tspan x="10" y="250">  │ ├── geojson-normalize@0.0.0 </tspan>
<tspan x="10" y="266">  │ └── jsts@1.1.2 </tspan>
<tspan x="10" y="282">  ├── turf-center@3.0.12 </tspan>
<tspan x="10" y="298">  ├── turf-centroid@3.0.12 </tspan>
<tspan x="10" y="314">  ├── turf-circle@3.0.12 </tspan>
<tspan x="10" y="330">  ├── turf-collect@3.0.12 </tspan>
<tspan x="10" y="346">  ├── turf-combine@3.0.12 </tspan>
<tspan x="10" y="362">  ├── turf-concave@3.0.12 </tspan>
<tspan x="10" y="378">  ├─┬ turf-convex@3.0.12 </tspan>
<tspan x="10" y="394">  │ └─┬ convex-hull@1.0.3 </tspan>
<tspan x="10" y="410">  │   ├─┬ affine-hull@1.0.0 </tspan>
<tspan x="10" y="426">  │   │ └─┬ robust-orientation@1.1.3 </tspan>
<tspan x="10" y="442">  │   │   ├─┬ robust-scale@1.0.2 </tspan>
<tspan x="10" y="458">  │   │   │ └── two-sum@1.0.0 </tspan>
<tspan x="10" y="474">  │   │   ├── robust-subtract@1.0.0 </tspan>
<tspan x="10" y="490">  │   │   ├── robust-sum@1.0.0 </tspan>
<tspan x="10" y="506">  │   │   └── two-product@1.0.2 </tspan>
<tspan x="10" y="522">  │   ├─┬ incremental-convex-hull@1.0.1 </tspan>
<tspan x="10" y="538">  │   │ └─┬ simplicial-complex@1.0.0 </tspan>
<tspan x="10" y="554">  │   │   ├── bit-twiddle@1.0.2 </tspan>
<tspan x="10" y="570">  │   │   └── union-find@1.0.2 </tspan>
<tspan x="10" y="586">  │   └── monotone-convex-hull-2d@1.0.1 </tspan>
<tspan x="10" y="602">  ├── turf-destination@3.0.12 </tspan>
<tspan x="10" y="618">  ├── turf-difference@3.0.12 </tspan>
<tspan x="10" y="634">  ├── turf-distance@3.0.12 </tspan>
<tspan x="10" y="650">  ├── turf-envelope@3.0.12 </tspan>
<tspan x="10" y="666">  ├── turf-explode@3.0.12 </tspan>
<tspan x="10" y="682">  ├── turf-flip@3.0.12 </tspan>
<tspan x="10" y="698">  ├── turf-helpers@3.0.12 </tspan>
<tspan x="10" y="714">  ├── turf-hex-grid@3.0.12 </tspan>
<tspan x="10" y="730">  ├── turf-inside@3.0.12 </tspan>
<tspan x="10" y="746">  ├── turf-intersect@3.0.12 </tspan>
<tspan x="10" y="762">  ├─┬ turf-isolines@3.0.12 </tspan>
<tspan x="10" y="778">  │ └─┬ turf-grid@1.0.1 </tspan>
<tspan x="10" y="794">  │   └─┬ turf-point@2.0.1 </tspan>
<tspan x="10" y="810">  │     └── minimist@1.2.0 </tspan>
<tspan x="10" y="826">  ├── turf-kinks@3.0.12 </tspan>
<tspan x="10" y="842">  ├── turf-line-distance@3.0.12 </tspan>
<tspan x="10" y="858">  ├── turf-line-slice@3.0.12 </tspan>
<tspan x="10" y="874">  ├── turf-meta@3.0.12 </tspan>
<tspan x="10" y="890">  ├── turf-midpoint@3.0.12 </tspan>
<tspan x="10" y="906">  ├── turf-nearest@3.0.12 </tspan>
<tspan x="10" y="922">  ├── turf-planepoint@3.0.12 </tspan>
<tspan x="10" y="938">  ├── turf-point-grid@3.0.12 </tspan>
<tspan x="10" y="954">  ├── turf-point-on-line@3.0.12 </tspan>
<tspan x="10" y="970">  ├── turf-point-on-surface@3.0.12 </tspan>
<tspan x="10" y="986">  ├─┬ turf-random@3.0.12 </tspan>
<tspan x="10" y="1002">  │ └── geojson-random@0.2.2 </tspan>
<tspan x="10" y="1018">  ├── turf-sample@3.0.12 </tspan>
<tspan x="10" y="1034">  ├─┬ turf-simplify@3.0.12 </tspan>
<tspan x="10" y="1050">  │ └── simplify-js@1.2.1 </tspan>
<tspan x="10" y="1066">  ├── turf-square@3.0.12 </tspan>
<tspan x="10" y="1082">  ├── turf-square-grid@3.0.12 </tspan>
<tspan x="10" y="1098">  ├── turf-tag@3.0.12 </tspan>
<tspan x="10" y="1114">  ├─┬ turf-tesselate@3.0.12 </tspan>
<tspan x="10" y="1130">  │ └── earcut@2.1.1 </tspan>
<tspan x="10" y="1146">  ├── turf-tin@3.0.12 </tspan>
<tspan x="10" y="1162">  ├── turf-triangle-grid@3.0.12 </tspan>
<tspan x="10" y="1178">  ├── turf-union@3.0.12 </tspan>
<tspan x="10" y="1194">  └── turf-within@3.0.12</tspan>
</text>
</svg>
